<svg width="57" height="18" viewBox="0 0 57 18" fill="none" xmlns="http://www.w3.org/2000/svg">
<g clip-path="url(#clip0_212_89)">
<path d="M35.067 4.27689C34.5709 4.27689 34.1612 4.76919 34.1612 5.41535C34.1612 5.41535 34.1612 16.2769 34.1612 16.8923C34.1612 17.5077 34.5709 18.0307 35.067 18.0307H43.9308C44.4268 18.0307 44.8365 17.5384 44.8365 16.8923C44.8365 16.8923 44.8365 6.03073 44.8365 5.41535C44.8365 4.79996 44.4268 4.27689 43.9308 4.27689H35.067ZM41.8604 15.7538H37.1373C36.8354 15.7538 36.5982 15.4153 36.5982 14.9846V7.29227C36.5982 6.8615 36.8354 6.52304 37.1373 6.52304H41.8604C42.1623 6.52304 42.3995 6.8615 42.3995 7.29227V14.9846C42.3995 15.4153 42.1623 15.7538 41.8604 15.7538Z" fill="#0084FF"/>
<path d="M16.5414 3.35387H14.126V1.56926C14.126 1.04618 14.4064 0.646179 14.773 0.646179H16.5414V3.35387Z" fill="#0084FF"/>
<path d="M32.5653 3.35387H30.1499V1.56926C30.1499 1.04618 30.4302 0.646179 30.7969 0.646179H32.5653V3.35387Z" fill="#0084FF"/>
<path d="M56.1087 3.85712H46.5V18H48.9348V6.1668H54.0218C54.3261 6.1668 54.5653 6.51484 54.5653 6.95779V17.9683H57C57 17.9683 57 5.62893 57 4.99614C57 4.36335 56.6087 3.85712 56.1087 3.85712Z" fill="#0084FF"/>
<path d="M32.5653 18C32.5653 18 32.5653 4.24615 32.5437 4.24615H30.1498H19.0647C18.5687 4.24615 18.1589 4.73846 18.1589 5.38462C18.1589 5.38462 18.1589 10.4923 18.1589 11.1385C18.1589 11.7538 18.5687 12.2769 19.0647 12.2769H25.664C25.9012 12.2769 26.0953 12.5538 26.0953 12.8923V15.1385C26.0953 15.4769 25.9012 15.7538 25.664 15.7538H16.5414V4.27692H10.244C9.89898 4.27692 9.57548 4.58462 9.44608 5.01538L7.03065 13.1385L3.12713 0H0L5.37003 18H8.69126L11.9478 7.07692C12.0556 6.73846 12.2928 6.52308 12.5516 6.52308H14.126V17.5385C14.126 17.7846 14.277 18 14.4495 18H16.5414H27.6266C28.1226 18 28.5324 17.5077 28.5324 16.8615C28.5324 16.8615 28.5324 11.4462 28.5324 10.8C28.5324 10.1846 28.1226 9.66154 27.6266 9.66154H21.0272C20.79 9.66154 20.5959 9.38462 20.5959 9.04615V7.10769C20.5959 6.76923 20.79 6.49231 21.0272 6.49231H30.1283V17.5385C30.1283 17.7846 30.2792 18 30.4518 18H32.5653Z" fill="#0084FF"/>
</g>
<defs>
<clipPath id="clip0_212_89">
<rect width="57" height="18" fill="white"/>
</clipPath>
</defs>
</svg>
